<?xml version="1.0" standalone="no"?>
<!DOCTYPE svg PUBLIC "-//W3C//DTD SVG 1.1//EN" "http://www.w3.org/Graphics/SVG/1.1/DTD/svg11.dtd" >
<svg xmlns="http://www.w3.org/2000/svg">
<metadata>Generated by IcoMoon</metadata>
<defs>
<font id="icomoon" horiz-adv-x="1024">
<font-face units-per-em="1024" ascent="960" descent="-64" />
<missing-glyph horiz-adv-x="1024" />
<glyph unicode="&#x20;" horiz-adv-x="512" d="" />
<glyph unicode="&#xe900;" glyph-name="add-photo" d="M128 618.667c0-23.467 19.2-42.667 42.667-42.667s42.667 19.2 42.667 42.667v85.333h85.333c23.467 0 42.667 19.2 42.667 42.667s-19.2 42.667-42.667 42.667h-85.333v85.333c0 23.467-19.2 42.667-42.667 42.667s-42.667-19.2-42.667-42.667v-85.333h-85.333c-23.467 0-42.667-19.2-42.667-42.667s19.2-42.667 42.667-42.667h85.333v-85.333zM554.667 234.667c70.692 0 128 57.308 128 128s-57.308 128-128 128v0c-70.692 0-128-57.308-128-128s57.308-128 128-128v0zM896 704h-135.253l-52.907 57.6c-15.574 17.055-37.9 27.718-62.717 27.733h-273.070c7.253-12.8 11.947-26.88 11.947-42.667 0-46.933-38.4-85.333-85.333-85.333h-42.667v-42.667c0-46.933-38.4-85.333-85.333-85.333-15.787 0-29.867 4.693-42.667 11.947v-438.613c0-46.933 38.4-85.333 85.333-85.333h682.667c46.933 0 85.333 38.4 85.333 85.333v512c0 46.933-38.4 85.333-85.333 85.333zM554.667 149.333c-117.76 0-213.333 95.573-213.333 213.333s95.573 213.333 213.333 213.333 213.333-95.573 213.333-213.333-95.573-213.333-213.333-213.333z" />
<glyph unicode="&#xe901;" glyph-name="add" d="M768 405.346h-213.346v-213.346c0-23.473-19.18-42.654-42.654-42.654-23.521 0.089-42.564 19.133-42.654 42.645v213.354h-213.346c-23.521 0.089-42.564 19.133-42.654 42.645v0.008c0 23.473 19.18 42.654 42.654 42.654h213.346v213.346c0 23.473 19.18 42.654 42.654 42.654s42.654-19.18 42.654-42.654v-213.346h213.346c23.473 0 42.654-19.18 42.654-42.654s-19.18-42.654-42.654-42.654z" />
<glyph unicode="&#xe902;" glyph-name="arrow-left" d="M946.638 384.007h-714.88l312.32-312.32c24.96-24.96 24.96-65.92 0-90.88-11.54-11.563-27.495-18.716-45.12-18.716s-33.58 7.153-45.119 18.715l-421.761 421.761c-11.563 11.54-18.716 27.495-18.716 45.12s7.153 33.58 18.715 45.119l0.001 0.001 421.12 422.4c11.547 11.547 27.5 18.689 45.12 18.689 35.241 0 63.809-28.568 63.809-63.809 0-17.62-7.142-33.573-18.689-45.12v0l-311.68-312.96h714.88c35.2 0 64-28.8 64-64s-28.8-64-64-64z" />
<glyph unicode="&#xe903;" glyph-name="arrow-right" d="M77.356 384.015h714.88l-312.32-312.32c-24.96-24.96-24.96-65.92 0-90.88s65.28-24.96 90.24 0l421.76 421.76c11.563 11.54 18.716 27.495 18.716 45.12s-7.153 33.58-18.715 45.119l-0.001 0.001-421.12 422.4c-11.547 11.547-27.5 18.689-45.12 18.689-35.241 0-63.809-28.568-63.809-63.809 0-17.62 7.142-33.573 18.689-45.12v0l311.68-312.96h-714.88c-35.2 0-64-28.8-64-64s28.8-64 64-64z" />
<glyph unicode="&#xe904;" glyph-name="arrow-right-2" d="M608.742 691.935c-6.994-6.992-11.32-16.652-11.32-27.322s4.326-20.331 11.32-27.322l150.528-150.435h-588.428c-21.418-0.053-38.766-17.401-38.819-38.814v-0.005c0-21.411 17.501-38.819 38.819-38.819h588.8l-150.528-150.435c-7.004-7.004-11.336-16.681-11.336-27.369 0-21.376 17.329-38.705 38.705-38.705 10.688 0 20.364 4.332 27.369 11.336l216.809 216.902c6.994 6.992 11.32 16.652 11.32 27.322s-4.326 20.331-11.32 27.322v0l-217.181 216.343c-6.996 7.022-16.675 11.367-27.369 11.367s-20.372-4.345-27.368-11.365l-0.001-0.001z" />
<glyph unicode="&#xe905;" glyph-name="check-circle" d="M512 874.667c-235.52 0-426.667-191.147-426.667-426.667s191.147-426.667 426.667-426.667 426.667 191.147 426.667 426.667-191.147 426.667-426.667 426.667zM396.373 264.96l-153.173 153.173c-7.698 7.698-12.46 18.333-12.46 30.080 0 23.494 19.046 42.54 42.54 42.54 11.747 0 22.382-4.761 30.080-12.46v0l123.307-122.88 293.547 293.547c7.698 7.698 18.333 12.46 30.080 12.46 23.494 0 42.54-19.046 42.54-42.54 0-11.747-4.761-22.382-12.46-30.080l-323.84-323.84c-7.693-7.709-18.33-12.478-30.080-12.478s-22.387 4.769-30.079 12.477l-0.001 0.001z" />
<glyph unicode="&#xe906;" glyph-name="chevron-down" d="M353.29 570.891l158.925-158.925 158.925 158.925c7.39 7.39 17.6 11.961 28.877 11.961 22.554 0 40.838-18.284 40.838-40.838 0-11.277-4.571-21.487-11.961-28.877l-188.006-188.006c-7.386-7.4-17.597-11.979-28.877-11.979s-21.491 4.578-28.876 11.978l-188.007 188.007c-7.4 7.386-11.979 17.597-11.979 28.877s4.578 21.491 11.978 28.876l0.001 0.001c15.974 15.565 42.189 15.974 58.163 0z" />
<glyph unicode="&#xe907;" glyph-name="chevron-up" d="M353.29 325.116l158.925 158.925 158.925-158.925c7.39-7.39 17.6-11.961 28.877-11.961 22.554 0 40.838 18.284 40.838 40.838 0 11.277-4.571 21.487-11.961 28.877l-188.006 188.006c-7.386 7.4-17.597 11.979-28.877 11.979s-21.491-4.578-28.876-11.978l-188.007-188.007c-7.4-7.386-11.979-17.597-11.979-28.877s4.578-21.491 11.978-28.876l0.001-0.001c15.974-15.565 42.189-15.974 58.163 0z" />
<glyph unicode="&#xe908;" glyph-name="chevron-left" d="M634.388 664.678c7.4-7.386 11.979-17.597 11.979-28.877s-4.578-21.491-11.978-28.876l-158.926-158.926 158.925-158.925c7.39-7.39 11.961-17.6 11.961-28.877 0-22.554-18.284-40.838-40.838-40.838-11.277 0-21.487 4.571-28.877 11.961l-188.006 188.006c-7.4 7.386-11.979 17.597-11.979 28.877s4.578 21.491 11.978 28.876l188.007 188.007c15.565 15.565 41.779 15.565 57.754-0.41z" />
<glyph unicode="&#xe909;" glyph-name="chevron-right" d="M389.612 664.678c-7.4-7.386-11.979-17.597-11.979-28.877s4.578-21.491 11.978-28.876l158.926-158.926-158.925-158.925c-7.39-7.39-11.961-17.6-11.961-28.877 0-22.554 18.284-40.838 40.838-40.838 11.277 0 21.487 4.571 28.877 11.961l188.006 188.006c7.4 7.386 11.979 17.597 11.979 28.877s-4.578 21.491-11.978 28.876l-188.007 188.007c-15.565 15.565-41.779 15.565-57.754-0.41z" />
<glyph unicode="&#xe90a;" glyph-name="copy" d="M661.319 917.326h-469.333c-46.933 0-85.333-38.4-85.333-85.333v-554.667c0-23.467 19.2-42.667 42.667-42.667s42.667 19.2 42.667 42.667v512c0 23.467 19.2 42.667 42.667 42.667h426.667c23.467 0 42.667 19.2 42.667 42.667s-19.2 42.667-42.667 42.667zM686.492 721.486l206.080-206.080c15.787-15.787 24.747-37.547 24.747-60.16v-391.253c0-46.933-38.4-85.333-85.333-85.333h-469.76c-46.933 0-84.907 38.4-84.907 85.333l0.427 597.333c0 46.933 37.973 85.333 84.907 85.333h263.253c22.613 0 44.373-8.96 60.587-25.173zM661.319 447.993h192l-234.667 234.667v-192c0-23.467 19.2-42.667 42.667-42.667z" />
<glyph unicode="&#xe90b;" glyph-name="drive" d="M807.268 746.247c-8.533 25.173-32.427 43.093-60.587 43.093h-469.333c-28.16 0-51.627-17.92-60.587-43.093l-84.053-241.92c-2.987-8.96-4.693-18.347-4.693-28.16v-305.493c0-35.413 28.587-64 64-64s64 28.587 64 64v21.333h512v-21.333c0-34.987 28.587-64 64-64 34.987 0 64 28.587 64 64v305.493c0 9.387-1.707 19.2-4.693 28.16l-84.053 241.92zM277.348 320.007c-35.413 0-64 28.587-64 64s28.587 64 64 64 64-28.587 64-64-28.587-64-64-64zM746.682 320.007c-35.413 0-64 28.587-64 64s28.587 64 64 64 64-28.587 64-64-28.587-64-64-64zM213.348 533.34l54.187 162.987c5.973 17.067 22.187 29.013 40.533 29.013h407.893c18.347 0 34.56-11.947 40.533-29.013l54.187-162.987h-597.333z" />
<glyph unicode="&#xe90c;" glyph-name="info" d="M512 931.552c-267.021-0.097-483.458-216.534-483.556-483.546v-0.009c0-266.923 216.633-483.556 483.556-483.556s483.556 216.633 483.556 483.556-216.633 483.556-483.556 483.556zM512 206.219c-26.68 0.065-48.291 21.675-48.356 48.349v193.428c0 26.624 21.788 48.356 48.356 48.356s48.356-21.732 48.356-48.356v-193.422c0-26.567-21.788-48.356-48.356-48.356zM560.356 593.064h-96.711v96.711h96.711v-96.711z" />
<glyph unicode="&#xe90d;" glyph-name="instagram" d="M512 960c282.782 0 512-229.218 512-512s-229.218-512-512-512-512 229.218-512 512 229.218 512 512 512zM602.191 691.751h-198.892c-33.871 0-66.284-13.273-90.23-36.864-23.041-22.665-37.331-54.164-37.376-89.001v-194.292c0-33.398 13.43-65.378 37.376-89.009s56.399-36.864 90.23-36.864h198.892c33.871 0 66.284 13.273 90.23 36.864 23.946 23.631 37.376 55.611 37.376 89.009v194.284c0 33.359-13.43 65.378-37.376 89.009-23.175 22.792-54.989 36.864-90.089 36.864-0.050 0-0.099 0-0.149 0h0.008zM602.191 648.625c22.764 0 44.623-8.94 60.692-24.812 16.148-15.872 25.167-37.415 25.167-59.865v-194.284c-0.129-23.414-9.762-44.553-25.234-59.775l-0.011-0.011c-16.108-15.872-37.888-24.812-60.613-24.93h-198.892c-23.625 0.080-45.016 9.582-60.624 24.942l0.011-0.011c-15.48 15.236-25.112 36.373-25.245 59.761v194.27c0 22.449 9.058 44.032 25.167 59.904 16.069 15.872 37.927 24.812 60.692 24.812h198.892zM502.548 582.183c-0.015 0-0.034 0-0.052 0-24.026 0-46.366-7.219-64.969-19.607l0.43 0.27c-18.913-12.585-33.635-30.118-42.486-50.766l-0.286-0.749c-5.583-12.937-8.83-27.999-8.83-43.82 0-7.951 0.82-15.711 2.38-23.199l-0.128 0.735c4.529-22.213 15.636-42.654 31.902-58.683 21.178-20.661 50.161-33.405 82.121-33.405 16.091 0 31.427 3.23 45.395 9.078l-0.776-0.288c21.571 8.994 39.295 23.601 51.848 42.016l0.258 0.401c12.167 17.809 19.429 39.81 19.429 63.507 0 15.921-3.278 31.077-9.196 44.829l0.282-0.738c-6.187 14.451-14.697 26.773-25.19 37.084l-0.016 0.016c-21.104 20.607-49.996 33.32-81.857 33.32-0.091 0-0.183 0-0.274 0h0.014zM531.023 535.788c13.627-5.514 25.206-14.966 33.398-27.018 7.859-11.44 12.551-25.59 12.551-40.835 0-20.33-8.344-38.711-21.795-51.905l-0.012-0.011c-13.524-13.339-32.11-21.577-52.62-21.577-15.401 0-29.717 4.645-41.624 12.611l0.272-0.171c-12.117 8.050-21.551 19.271-27.229 32.486l-0.183 0.479c-3.599 8.313-5.693 17.993-5.693 28.163 0 20.321 8.359 38.689 21.827 51.854l0.014 0.013c13.584 13.28 32.188 21.473 52.707 21.473 10.248 0 20.018-2.044 28.925-5.746l-0.499 0.184zM623.065 616.369c-7.654-0.019-14.582-3.114-19.615-8.115l0.001 0.001c-4.916-4.912-7.957-11.699-7.957-19.197 0-0.091 0-0.182 0.001-0.273v0.014c0-7.207 2.914-14.139 8.074-19.259s12.209-7.956 19.495-7.956c0.106-0.001 0.23-0.002 0.355-0.002 7.546 0 14.394 2.989 19.424 7.848l-0.008-0.008c5.041 4.943 8.166 11.825 8.166 19.436s-3.125 14.493-8.161 19.432l-0.004 0.004c-5.078 4.992-12.047 8.074-19.737 8.074-0.012 0-0.024 0-0.036 0h0.002z" />
<glyph unicode="&#xe90e;" glyph-name="map-pin" d="M512 892.437c192.427 0 348.444-156.018 348.444-348.444 0-134.030-62.891-262.969-166.969-382.663-35.186-40.198-72.136-76.651-111.579-110.265l-1.488-1.237-15.73-13.113-7.481-6.059-14.165-11.093c-3.442-2.617-6.428-4.836-8.903-6.656l-5.831-4.21c-4.543-3.211-10.196-5.133-16.299-5.133s-11.756 1.922-16.388 5.193l0.089-0.060-5.831 4.21c-4.675 3.42-7.572 5.613-10.451 7.83l1.548-1.145-14.165 11.065-7.481 6.059-15.73 13.084c-40.931 34.851-77.88 71.305-112.019 110.282l-1.047 1.221c-104.078 119.751-166.969 248.69-166.969 382.692 0 192.427 156.018 348.444 348.444 348.444zM512 835.548c-160.996 0-291.556-130.56-291.556-291.556 0-117.959 57.116-235.036 153.031-345.316 40.010-45.712 82.904-86.785 129.15-123.85l1.979-1.533 7.396-5.803 7.396 5.803c48.225 38.591 91.119 79.654 130.137 124.198l0.992 1.156c95.915 110.308 153.031 227.385 153.031 345.344 0 160.996-130.56 291.556-291.556 291.556zM512 700.437c86.402 0 156.444-70.043 156.444-156.444s-70.043-156.444-156.444-156.444v0c-86.402 0-156.444 70.043-156.444 156.444s70.043 156.444 156.444 156.444v0zM512 643.548c-54.983 0-99.556-44.573-99.556-99.556s44.573-99.556 99.556-99.556v0c54.983 0 99.556 44.573 99.556 99.556s-44.573 99.556-99.556 99.556v0z" />
<glyph unicode="&#xe90f;" glyph-name="parking" d="M512.010 864.002c176.724 0 319.988-143.263 319.988-319.988v0c0-288.019-320.012-512-320.012-512s-319.988 223.981-319.988 512c0.014 176.727 143.283 319.988 320.012 319.988 0 0 0 0 0 0v0zM512.010 785.179c-131.040 0-237.268-106.229-237.268-237.268s106.229-237.268 237.268-237.268v0c131.040 0 237.268 106.229 237.268 237.268s-106.229 237.268-237.268 237.268v0zM512.010 735.227c103.452 0 187.317-83.865 187.317-187.317s-83.865-187.317-187.317-187.317v0c-103.452 0-187.317 83.865-187.317 187.317s83.865 187.317 187.317 187.317v0zM529.493 635.325h-79.922v-199.805h45.63v64.987h35.49c22.278 0 40.161 6.344 53.698 19.006 13.712 12.887 20.58 28.972 20.58 48.253 0 19.881-6.768 36.040-20.28 48.528-13.337 12.688-31.719 19.031-55.196 19.031zM525.322 598.136c10.54 0 18.682-2.847 24.476-8.492 5.944-5.495 8.941-12.788 8.941-21.879 0-8.891-2.997-16.184-8.966-21.854-5.969-5.495-14.111-8.242-24.451-8.242h-30.121v60.466z" />
<glyph unicode="&#xe910;" glyph-name="pdf" d="M853.348 874.667h-512c-46.933 0-85.333-38.4-85.333-85.333v-512c0-46.933 38.4-85.333 85.333-85.333h512c46.933 0 85.333 38.4 85.333 85.333v512c0 46.933-38.4 85.333-85.333 85.333zM490.682 554.667c0-35.413-28.587-64-64-64h-42.667v-53.333c0-17.493-14.507-32-32-32s-32 14.507-32 32v181.333c0 23.467 19.2 42.667 42.667 42.667h64c35.413 0 64-28.587 64-64v-42.667zM704.015 469.333c0-35.413-28.587-64-64-64h-85.333c-11.947 0-21.333 9.387-21.333 21.333v213.333c0 11.947 9.387 21.333 21.333 21.333h85.333c35.413 0 64-28.587 64-64v-128zM874.682 629.333c0-17.493-14.507-32-32-32h-32v-42.667h32c17.493 0 32-14.507 32-32s-14.507-32-32-32h-32v-53.333c0-17.493-14.507-32-32-32s-32 14.507-32 32v181.333c0 23.467 19.2 42.667 42.667 42.667h53.333c17.493 0 32-14.507 32-32zM384.015 554.667h42.667v42.667h-42.667v-42.667zM128.015 704c-23.467 0-42.667-19.2-42.667-42.667v-554.667c0-46.933 38.4-85.333 85.333-85.333h554.667c23.467 0 42.667 19.2 42.667 42.667s-19.2 42.667-42.667 42.667h-512c-23.467 0-42.667 19.2-42.667 42.667v512c0 23.467-19.2 42.667-42.667 42.667zM597.348 469.333h42.667v128h-42.667v-128z" />
<glyph unicode="&#xe911;" glyph-name="phone" d="M820.132 308.559l-108.373 12.373c-2.973 0.369-6.414 0.58-9.904 0.58-23.462 0-44.701-9.516-60.068-24.899l-78.508-78.508c-121.681 62.791-218.383 159.493-279.489 277.593l-1.685 3.58 78.933 78.933c18.347 18.347 27.307 43.947 24.32 69.973l-12.373 107.52c-5.109 42.719-41.126 75.52-84.805 75.52-0.036 0-0.071 0-0.107 0h-73.808c-48.213 0-88.32-40.107-85.333-88.32 22.613-364.373 314.027-655.36 677.973-677.973 48.213-2.987 88.32 37.12 88.32 85.333v73.813c0.427 43.093-32 79.36-75.093 84.48z" />
<glyph unicode="&#xe912;" glyph-name="search" d="M738.23 309.283h-44.942l-15.929 15.189c55.578 63.226 89.492 146.678 89.492 238.051 0 21.779-1.927 43.107-5.619 63.825l0.323-2.185c-26.738 155.989-158.72 280.576-318.009 299.634-240.64 29.184-443.164-170.553-413.582-407.95 19.342-157.184 145.636-287.346 303.787-313.742 18.824-3.364 40.494-5.288 62.613-5.288 92.188 0 176.573 33.412 241.705 88.786l-0.532-0.441 15.36-15.701v-44.373l241.778-238.478c23.324-22.983 61.44-22.983 84.764 0s23.324 60.587 0 83.627l-241.209 239.047zM396.897 309.283c-141.653 0-256 112.811-256 252.587 0 139.719 114.347 252.53 256 252.53s256-112.811 256-252.587c0-139.719-114.347-252.53-256-252.53z" />
<glyph unicode="&#xe913;" glyph-name="star" d="M516.679 121.425l217.498-146.278c48.128-32.461 106.65 14.694 93.235 70.707l-62.822 262.451c-0.315 1.224-0.496 2.63-0.496 4.077 0 1.722 0.256 3.385 0.733 4.952l-0.031-0.12c0.817 2.672 2.291 4.94 4.237 6.696l0.013 0.012 194.816 172.186c42.086 37.325 20.582 111.002-35.686 114.842l-254.669 17.562c-1.841 0.187-3.489 0.89-4.831 1.96l0.019-0.014c-1.839 1.46-3.251 3.383-4.067 5.595l-0.029 0.088-95.078 254.208c-4.401 12.054-11.987 22.066-21.745 29.32l-0.168 0.12c-9.826 7.294-22.193 11.677-35.584 11.677s-25.758-4.382-35.746-11.791l0.162 0.115c-10.24-7.526-17.92-17.92-22.118-29.901l-94.771-253.44c-0.838-2.422-2.291-4.453-4.173-5.971l-0.025-0.020c-1.405-1.116-3.165-1.844-5.087-1.995l-0.033-0.002-254.31-17.51c-56.32-3.84-77.926-77.517-35.738-114.842l194.97-172.288c1.89-1.751 3.311-3.983 4.069-6.501l0.027-0.103c0.443-1.439 0.698-3.092 0.698-4.806 0-1.439-0.18-2.835-0.518-4.169l0.025 0.117-58.266-243.405c-15.053-62.976 50.33-115.712 104.090-79.462l201.984 135.936c1.33 0.926 2.98 1.479 4.76 1.479 0.859 0 1.688-0.129 2.468-0.369l-0.059 0.016 2.304-1.126z" />
<glyph unicode="&#xe914;" glyph-name="thumb-down" d="M141.714 813.714h679.497c48.933-0.002 89.703-34.951 98.713-81.249l0.103-0.634 0.951-6.217 48.018-384c0.494-3.745 0.776-8.074 0.776-12.47 0-53.025-41.035-96.465-93.081-100.297l-0.33-0.020-7.168-0.256h-210.944v-59.429c0-90.89-73.681-164.571-164.571-164.571v0c-0.002 0-0.004 0-0.005 0-12.632 0-23.769 6.405-30.339 16.144l-0.083 0.13-2.267 3.95-149.906 299.776h-169.362c-37.871 0-68.571 30.7-68.571 68.571v0 352c0 37.888 30.72 68.571 68.571 68.571zM370.286 369.774l144.75-289.536c38.402 9.478 66.922 42.288 69.834 82.207l0.017 0.298 0.219 6.4v96c0.003 18.688 14.022 34.101 32.117 36.298l0.176 0.017 4.315 0.256h247.515c0.001 0 0.003 0 0.005 0 14.968 0 27.136 11.99 27.423 26.89v0.027l-0.183 3.913-48.018 384c-1.59 12.351-11.199 22.047-23.371 23.755l-0.145 0.017-3.73 0.256h-450.926v-370.798zM297.143 740.571h-150.857v-342.857h150.857v342.857z" />
<glyph unicode="&#xe915;" glyph-name="thumb-up" d="M141.714 77.714h679.497c48.933 0.002 89.703 34.951 98.713 81.249l0.103 0.634 0.951 6.217 48.018 384c0.494 3.745 0.776 8.074 0.776 12.47 0 53.025-41.035 96.465-93.081 100.297l-0.33 0.020-7.168 0.256h-210.944v59.429c0 90.89-73.681 164.571-164.571 164.571v0c-0.002 0-0.004 0-0.005 0-12.632 0-23.769-6.405-30.339-16.144l-0.083-0.13-2.267-3.95-149.906-299.776h-169.362c-37.888 0-68.571-30.72-68.571-68.571v-352c0-37.888 30.72-68.571 68.571-68.571zM370.286 521.655l144.75 289.536c38.402-9.478 66.922-42.288 69.834-82.207l0.017-0.298 0.219-6.4v-96c0.003-18.688 14.022-34.101 32.117-36.298l0.176-0.017 4.279-0.256h247.515c0.001 0 0.003 0 0.005 0 14.968 0 27.136-11.99 27.423-26.89v-0.027l-0.183-3.913-48.018-384c-1.59-12.351-11.199-22.047-23.371-23.755l-0.145-0.017-3.694-0.256h-450.926v370.798zM297.143 150.857h-150.857v342.857h150.857v-342.857z" />
<glyph unicode="&#xe916;" glyph-name="volume" d="M23.681 554.433v-213.1c0.304-29.533 24.316-53.357 53.892-53.357 0.134 0 0.267 0 0.4 0.001h162.742l178.499-175.266c34.169-33.576 92.753-9.593 92.753 37.834v595.213c0 47.427-58.584 71.357-92.753 37.78l-178.499-175.805h-162.762c-0.113 0.001-0.247 0.001-0.381 0.001-29.557 0-53.557-23.794-53.891-53.272v-0.032zM756.11 447.883c0 94.316-55.296 175.32-135.599 214.717v-428.948c80.303 38.912 135.599 119.916 135.599 214.232zM620.511 850.153v-10.617c0-20.264 13.528-37.834 32.552-45.272 139.965-54.973 238.754-189.709 238.754-346.381s-98.789-291.463-238.754-346.328c-19.564-7.491-32.552-25.061-32.552-45.272v-10.725c0.278-26.725 22.008-48.283 48.772-48.283 6.057 0 11.856 1.104 17.207 3.122l-0.336-0.111c183.889 68.77 314.152 242.957 314.152 447.596 0 204.584-130.21 378.88-314.206 447.596-31.421 12.234-65.59-11.749-65.59-45.272z" />
<glyph unicode="&#xe917;" glyph-name="zoom-in" d="M463.476 873.013c1.241 0.015 2.707 0.023 4.175 0.023 208.186 0 376.955-168.768 376.955-376.955 0-90.602-31.964-173.739-85.231-238.748l0.529 0.665 164.987-164.987c7.495-7.426 12.135-17.721 12.135-29.1 0-22.622-18.338-40.96-40.96-40.96-9.562 0-18.359 3.277-25.329 8.769l0.087-0.066-3.85 3.4-165.437 165.396c-60.962-48.589-138.471-78.796-222.942-81.212l-0.536-0.012-12.616-0.123-12.452 0.123c-203.428 6.090-366.019 172.455-366.019 376.796 0 0.012 0 0.025 0 0.037v-0.002c0 208.159 168.755 376.914 376.504 376.914zM463.927 791.093c-0.196 0-0.429 0.001-0.661 0.001-162.943 0-295.035-132.092-295.035-295.035 0-159.085 125.91-288.762 283.513-294.814l0.551-0.017 9.912-0.205 13.107 0.082c73.221 1.97 139.462 30.32 189.905 75.843l-0.26-0.231c3.56 7.082 8.874 12.83 15.385 16.814l0.18 0.102 3.441 1.802c48.785 52.464 78.725 123.031 78.725 200.59 0 54.704-14.895 105.93-40.85 149.843l0.75-1.371c-52.129 88.309-146.807 146.617-255.104 146.617-1.251 0-2.501-0.008-3.748-0.023l0.189 0.002zM463.927 664.977c20.931-0.003 38.193-15.704 40.654-35.971l0.019-0.197 0.287-4.792v-86.999h87.040c20.943-0.005 38.212-15.728 40.654-36.013l0.019-0.196 0.287-4.792c-0.003-20.931-15.704-38.193-35.971-40.654l-0.197-0.019-4.792-0.287h-87.040v-87.040c-0.003-20.931-15.704-38.193-35.971-40.654l-0.197-0.019-4.792-0.287c-20.943 0.005-38.212 15.728-40.654 36.013l-0.019 0.196-0.287 4.751-0.041 87.040h-86.999c-20.943 0.005-38.212 15.728-40.654 36.013l-0.019 0.196-0.287 4.751c0 0.011 0 0.023 0 0.036 0 20.933 15.703 38.198 35.971 40.659l0.197 0.019 4.792 0.246 86.999 0.041 0.041 86.999c0 0.010 0 0.021 0 0.033 0 19.279 13.32 35.448 31.259 39.804l0.28 0.057 4.628 0.819 4.792 0.246z" />
<glyph unicode="&#xe918;" glyph-name="moscow-metro" d="M935.924 536.064c0 233.984-189.44 423.936-423.936 423.936-233.984 0-423.936-189.952-423.936-423.936 0-117.248 47.616-223.232 124.416-299.52 6.144-6.144 14.848-10.24 24.064-10.24 18.944 0 34.304 15.36 34.304 34.304 0 9.728-3.584 18.432-10.24 25.088-63.905 64.001-103.424 152.366-103.424 249.961 0 0.143 0 0.286 0 0.429v-0.022c0 195.584 158.72 355.328 354.304 355.328s355.328-159.232 355.328-355.328c0-98.304-39.424-186.88-103.936-251.392l-299.52-299.52 48.64-49.152 300.544 300.544c76.288 76.288 123.392 182.272 123.392 299.52zM708.596 454.144l-105.984 267.264-89.088-156.16-89.6 156.16-105.472-267.264h-30.72v-39.936h159.232v39.936h-23.552l23.040 66.56 67.072-109.568 67.072 109.568 23.040-66.56h-24.064v-39.936h160.256v39.936h-31.232z" />
<glyph unicode="&#xe919;" glyph-name="caret-down" d="M652.536 473.017l-110.507-110.507c-7.693-7.709-18.33-12.478-30.080-12.478s-22.387 4.769-30.079 12.477l-110.508 110.508c-26.88 26.88-7.68 72.96 30.293 72.96h221.013c37.973 0 56.747-46.080 29.867-72.96z" />
<glyph unicode="&#xe91a;" glyph-name="pedestrian" horiz-adv-x="671" d="M388.382 788.156c-23.541 0-43.746 8.435-60.617 25.306s-25.306 37.076-25.306 60.616c0 23.54 8.435 43.746 25.306 60.616s37.075 25.306 60.617 25.306c23.541 0 43.746-8.435 60.617-25.306 16.868-16.87 25.303-37.076 25.303-60.616s-8.436-43.746-25.303-60.616c-16.871-16.871-37.076-25.306-60.617-25.306zM80.004-52.231l137.71 693.261-120.055-54.144v-156.541h-71.798v203.623l225.986 95.338c21.971 9.416 45.707 11.77 71.209 7.062s44.922-16.871 58.262-36.488l49.434-77.683c20.402-32.956 48.453-61.402 84.155-85.332 35.702-23.933 77.097-35.9 124.176-35.9v-70.621c-52.574 0-99.459 11.967-140.652 35.9-41.197 23.93-79.448 59.83-114.759 107.697l-48.259-183.614 108.287-97.693v-344.866h-70.621v282.483l-127.119 115.348-92.984-397.831h-72.975z" />
<glyph unicode="&#xe91b;" glyph-name="bus" d="M180.387 317.085c-32.378 0-58.721-26.344-58.721-58.723s26.341-58.72 58.721-58.72c32.38 0 58.723 26.341 58.723 58.72s-26.345 58.723-58.723 58.723zM180.387 234.82c-12.981 0-23.543 10.557-23.543 23.542s10.561 23.545 23.543 23.545c12.983 0 23.546-10.561 23.546-23.545s-10.565-23.542-23.546-23.542zM791.19 317.085c-32.379 0-58.723-26.344-58.723-58.723s26.344-58.72 58.723-58.72c32.379 0 58.72 26.341 58.72 58.72s-26.341 58.723-58.72 58.723zM791.19 234.82c-12.984 0-23.545 10.557-23.545 23.542s10.561 23.545 23.545 23.545c12.981 0 23.542-10.561 23.542-23.545s-10.557-23.542-23.542-23.542zM937.417 755.491h-850.81c-47.755 0-86.608-38.841-86.608-86.584v-417.068c0-9.711 7.875-17.589 17.589-17.589h47.401c11.159-53.46 58.646-93.744 115.371-93.744s104.21 40.284 115.369 93.744h380.069c11.158-53.46 58.644-93.744 115.371-93.744 56.723 0 104.209 40.284 115.367 93.744h99.874c9.714 0 17.589 7.878 17.589 17.589v417.068c0 47.743-38.84 86.584-86.583 86.584zM988.822 444.122h-95.075c-10.94 0-19.838 8.899-19.838 19.838v167.518c0 10.94 8.899 19.84 19.838 19.84h95.075v-207.196zM35.178 287.932h31.083c-1.555-5.994-2.631-12.179-3.225-18.504h-27.858v18.504zM180.358 175.684c-45.59 0-82.682 37.089-82.682 82.678 0 45.592 37.091 82.681 82.682 82.681s82.679-37.089 82.679-82.681c0-45.588-37.089-82.678-82.679-82.678zM791.17 175.684c-45.592 0-82.681 37.089-82.681 82.678 0 45.592 37.089 82.681 82.681 82.681 45.588 0 82.678-37.089 82.678-82.681 0-45.588-37.089-82.678-82.678-82.678zM791.17 376.221c-41.086 0-77.309-21.146-98.41-53.111h-330.1c-9.714 0-17.589-7.875-17.589-17.589 0-9.711 7.875-17.589 17.589-17.589h314.409c-1.553-5.994-2.628-12.179-3.222-18.504h-376.166c-5.598 59.819-56.068 106.793-117.322 106.793-41.085 0-77.309-21.142-98.411-53.108h-46.77v345.797c0 28.346 23.072 51.407 51.43 51.407h850.81c22.166 0 41.103-14.109 48.305-33.818h-91.976c-30.334 0-55.016-24.681-55.016-55.018v-167.517c0-30.338 24.682-55.016 55.016-55.016h95.075v-21.108h-29.314c-9.714 0-17.589-7.875-17.589-17.589s7.875-17.589 17.589-17.589h29.314v-29.549h-99.246c-21.101 31.962-57.324 53.108-98.406 53.108zM908.489 269.428c-0.591 6.325-1.669 12.51-3.222 18.504h83.555v-18.504h-80.333zM762.576 686.496h-632.425c-30.337 0-55.018-24.68-55.018-55.018v-167.517c0-30.338 24.681-55.016 55.018-55.016h632.425c30.338 0 55.020 24.678 55.020 55.016v167.517c0 30.337-24.682 55.018-55.020 55.018zM552.588 651.318v-207.196h-204.029v207.196h204.029zM110.311 463.961v167.517c0 10.94 8.9 19.84 19.84 19.84h183.229v-207.196h-183.229c-10.94 0-19.84 8.899-19.84 19.838zM782.418 463.961c0-10.94-8.902-19.838-19.842-19.838h-174.81v207.196h174.81c10.94 0 19.842-8.9 19.842-19.84v-167.517zM328.115 320.14c-6.595 4.349-15.518 3.796-21.449-1.471-5.347-4.745-7.266-12.496-4.81-19.2 2.62-7.151 9.746-11.882 17.364-11.506 7.378 0.362 13.872 5.475 15.987 12.537 2.178 7.277-0.734 15.456-7.092 19.64-0.962 0.631 0.962-0.635 0 0z" />
<glyph unicode="&#xe91c;" glyph-name="train" d="M663.344 943.698h-304.439c-29.83 0-58.544-7.161-84.454-19.777h473.346c-25.911 12.616-54.625 19.777-84.454 19.777zM890.669 336.929l-29.045 421.652c-2.864 41.636-19.492 80.168-45.119 111.181l-109.849-439.395c-3.059-12.235-14.052-20.82-26.664-20.82h-337.775c-12.616 0-23.614 8.585-26.669 20.82l-109.847 439.395c-25.624-31.013-42.253-69.545-45.121-111.181l-29.044-421.652c-7.009-101.815 70.752-185.119 172.811-185.119h413.514c102.060 0 179.818 83.304 172.808 185.119zM377.618 255.171c-26.674 0-48.379 21.705-48.379 48.379 0 26.68 21.705 48.382 48.379 48.382 26.68 0 48.382-21.702 48.382-48.382 0-26.674-21.702-48.379-48.382-48.379zM644.585 255.171c-26.674 0-48.379 21.705-48.379 48.379 0 26.68 21.705 48.382 48.379 48.382 26.68 0 48.382-21.702 48.382-48.382 0-26.674-21.702-48.379-48.382-48.379zM658.534 464.526l101.105 404.414h-497.059l101.108-404.414h294.846zM140.064 165.429l-131.975-156.616c-12.233-14.511-10.381-36.19 4.13-48.415 6.447-5.437 14.305-8.090 22.128-8.090 9.778 0 19.494 4.155 26.289 12.215l134.323 159.4c-20.125 10.805-38.595 24.721-54.896 41.505zM1015.927 8.81l-132.783 157.577c-16.202-16.879-34.585-30.908-54.629-41.829l134.854-160.031c6.798-8.066 16.513-12.222 26.294-12.222 7.822 0 15.684 2.656 22.125 8.083 14.514 12.232 16.367 33.914 4.139 48.422zM768.872 8.912l19.618-38.004c6.098-11.822 18.112-18.61 30.558-18.61 5.308 0 10.693 1.232 15.733 3.835 16.863 8.707 23.479 29.428 14.772 46.295l-55.263 107.071c-22.402-7.716-46.219-11.977-70.867-12.529l10.134-19.648h-446.571l10.161 19.687c-24.579 0.73-48.321 5.143-70.625 13.001l-55.527-107.579c-8.702-16.866-2.089-37.591 14.77-46.295 5.041-2.606 10.426-3.835 15.736-3.835 12.443 0 24.458 6.788 30.558 18.61l19.745 38.255 517.067-0.254z" />
</font>
</defs>
</svg>
